<mxfile host="65bd71144e">
    <diagram id="cfPcVWk13IE5omMQbcKf" name="Page-1">
        <mxGraphModel dx="2266" dy="1712" grid="0" gridSize="10" guides="1" tooltips="1" connect="1" arrows="1" fold="1" page="0" pageScale="1" pageWidth="850" pageHeight="1100" math="0" shadow="0">
            <root>
                <mxCell id="0"/>
                <mxCell id="1" parent="0"/>
                <mxCell id="2" value="" style="strokeWidth=1;shadow=0;dashed=0;align=center;html=1;shape=mxgraph.mockup.containers.browserWindow;rSize=0;strokeColor=#666666;strokeColor2=#008cff;strokeColor3=#c4c4c4;mainText=,;recursiveResize=0;fontSize=14;" parent="1" vertex="1">
                    <mxGeometry x="-1366" y="-631" width="550" height="380" as="geometry"/>
                </mxCell>
                <mxCell id="3" value="Page 1" style="strokeWidth=1;shadow=0;dashed=0;align=center;html=1;shape=mxgraph.mockup.containers.anchor;fontSize=14;fontColor=#666666;align=left;" parent="2" vertex="1">
                    <mxGeometry x="60" y="12" width="110" height="26" as="geometry"/>
                </mxCell>
                <mxCell id="4" value="https://www.draw.io" style="strokeWidth=1;shadow=0;dashed=0;align=center;html=1;shape=mxgraph.mockup.containers.anchor;rSize=0;fontSize=14;fontColor=#666666;align=left;" parent="2" vertex="1">
                    <mxGeometry x="130" y="60" width="250" height="26" as="geometry"/>
                </mxCell>
                <mxCell id="13" style="html=1;entryX=0.5;entryY=0;entryDx=0;entryDy=0;edgeStyle=orthogonalEdgeStyle;curved=1;fontSize=14;" parent="1" source="11" target="12" edge="1">
                    <mxGeometry relative="1" as="geometry"/>
                </mxCell>
                <mxCell id="38" style="edgeStyle=orthogonalEdgeStyle;curved=1;html=1;entryX=0.5;entryY=0;entryDx=0;entryDy=0;fontSize=14;" parent="1" source="11" target="18" edge="1">
                    <mxGeometry relative="1" as="geometry"/>
                </mxCell>
                <mxCell id="11" value="start" style="rounded=1;whiteSpace=wrap;html=1;fillColor=#60a917;fontColor=#ffffff;strokeColor=#2D7600;fontSize=14;" parent="1" vertex="1">
                    <mxGeometry x="60" y="-1010" width="120" height="60" as="geometry"/>
                </mxCell>
                <mxCell id="15" value="if no token" style="edgeStyle=orthogonalEdgeStyle;curved=1;html=1;fontSize=14;" parent="1" source="12" target="14" edge="1">
                    <mxGeometry relative="1" as="geometry"/>
                </mxCell>
                <mxCell id="24" style="edgeStyle=orthogonalEdgeStyle;curved=1;html=1;fontSize=14;entryX=0.5;entryY=0;entryDx=0;entryDy=0;exitX=1;exitY=0.5;exitDx=0;exitDy=0;" parent="1" source="12" target="17" edge="1">
                    <mxGeometry relative="1" as="geometry"/>
                </mxCell>
                <mxCell id="25" value="if valid token" style="edgeLabel;html=1;align=center;verticalAlign=middle;resizable=0;points=[];fontSize=14;" parent="24" vertex="1" connectable="0">
                    <mxGeometry x="0.1167" y="-17" relative="1" as="geometry">
                        <mxPoint x="15" y="7" as="offset"/>
                    </mxGeometry>
                </mxCell>
                <mxCell id="12" value="get guest token" style="rounded=1;whiteSpace=wrap;html=1;fillColor=default;strokeColor=#FFFF66;fontSize=14;" parent="1" vertex="1">
                    <mxGeometry x="-110" y="-820" width="120" height="60" as="geometry"/>
                </mxCell>
                <mxCell id="c42cUfcJjYAWY93HMcgf-95" style="edgeStyle=orthogonalEdgeStyle;html=1;curved=1;" edge="1" parent="1" source="14" target="c42cUfcJjYAWY93HMcgf-94">
                    <mxGeometry relative="1" as="geometry"/>
                </mxCell>
                <mxCell id="14" value="generate guest token" style="rounded=1;whiteSpace=wrap;html=1;strokeColor=#FFFF66;fontSize=14;" parent="1" vertex="1">
                    <mxGeometry x="-334" y="-664" width="120" height="60" as="geometry"/>
                </mxCell>
                <mxCell id="28" style="edgeStyle=orthogonalEdgeStyle;curved=1;html=1;fontSize=14;" parent="1" source="17" target="20" edge="1">
                    <mxGeometry relative="1" as="geometry">
                        <Array as="points">
                            <mxPoint x="103" y="-460"/>
                        </Array>
                    </mxGeometry>
                </mxCell>
                <mxCell id="17" value="load rooms" style="rounded=1;whiteSpace=wrap;html=1;fontSize=14;strokeColor=#FF0000;dashed=1;" parent="1" vertex="1">
                    <mxGeometry x="10" y="-540" width="120" height="60" as="geometry"/>
                </mxCell>
                <mxCell id="39" style="edgeStyle=orthogonalEdgeStyle;curved=1;html=1;entryX=0.5;entryY=0;entryDx=0;entryDy=0;fontSize=14;" parent="1" source="18" target="22" edge="1">
                    <mxGeometry relative="1" as="geometry"/>
                </mxCell>
                <mxCell id="40" value="if present&lt;br style=&quot;font-size: 14px;&quot;&gt;and valid" style="edgeLabel;html=1;align=center;verticalAlign=middle;resizable=0;points=[];fontSize=14;" parent="39" vertex="1" connectable="0">
                    <mxGeometry x="-0.2245" y="-13" relative="1" as="geometry">
                        <mxPoint as="offset"/>
                    </mxGeometry>
                </mxCell>
                <mxCell id="41" value="if not present" style="edgeStyle=orthogonalEdgeStyle;curved=1;html=1;fontSize=14;" parent="1" source="18" target="21" edge="1">
                    <mxGeometry relative="1" as="geometry"/>
                </mxCell>
                <mxCell id="54" value="if token is not valid" style="edgeStyle=orthogonalEdgeStyle;curved=1;html=1;entryX=0.5;entryY=0;entryDx=0;entryDy=0;fontSize=14;" parent="1" source="18" target="42" edge="1">
                    <mxGeometry relative="1" as="geometry"/>
                </mxCell>
                <mxCell id="18" value="get user token on url" style="rounded=1;whiteSpace=wrap;html=1;strokeColor=#009900;fontSize=14;dashed=1;" parent="1" vertex="1">
                    <mxGeometry x="305" y="-890" width="120" height="60" as="geometry"/>
                </mxCell>
                <mxCell id="37" style="edgeStyle=orthogonalEdgeStyle;curved=1;html=1;entryX=1;entryY=0.75;entryDx=0;entryDy=0;fontSize=14;" parent="1" source="19" target="20" edge="1">
                    <mxGeometry relative="1" as="geometry">
                        <Array as="points">
                            <mxPoint x="1020" y="-445"/>
                        </Array>
                    </mxGeometry>
                </mxCell>
                <mxCell id="19" value="send email&lt;br style=&quot;font-size: 14px;&quot;&gt;to user" style="rounded=1;whiteSpace=wrap;html=1;strokeColor=#009900;fontSize=14;dashed=1;" parent="1" vertex="1">
                    <mxGeometry x="960" y="-550" width="120" height="60" as="geometry"/>
                </mxCell>
                <mxCell id="29" style="edgeStyle=orthogonalEdgeStyle;curved=1;html=1;entryX=0;entryY=0.5;entryDx=0;entryDy=0;fontSize=14;" parent="1" source="20" target="23" edge="1">
                    <mxGeometry relative="1" as="geometry"/>
                </mxCell>
                <mxCell id="30" value="on click&lt;br style=&quot;font-size: 14px;&quot;&gt;login btn" style="edgeLabel;html=1;align=center;verticalAlign=middle;resizable=0;points=[];fontSize=14;" parent="29" vertex="1" connectable="0">
                    <mxGeometry x="0.2151" relative="1" as="geometry">
                        <mxPoint as="offset"/>
                    </mxGeometry>
                </mxCell>
                <mxCell id="63" style="edgeStyle=orthogonalEdgeStyle;curved=1;html=1;entryX=1;entryY=0.5;entryDx=0;entryDy=0;fontSize=14;fontColor=#FFFFFF;exitX=0;exitY=1;exitDx=0;exitDy=0;" parent="1" source="20" target="53" edge="1">
                    <mxGeometry relative="1" as="geometry">
                        <Array as="points">
                            <mxPoint x="462" y="-430"/>
                            <mxPoint x="462" y="-298"/>
                        </Array>
                    </mxGeometry>
                </mxCell>
                <mxCell id="64" value="if user&lt;br&gt;session" style="edgeLabel;html=1;align=center;verticalAlign=middle;resizable=0;points=[];fontSize=14;fontColor=#FFFFFF;" parent="63" vertex="1" connectable="0">
                    <mxGeometry x="-0.5456" y="-1" relative="1" as="geometry">
                        <mxPoint x="-36" y="38" as="offset"/>
                    </mxGeometry>
                </mxCell>
                <mxCell id="87" style="edgeStyle=orthogonalEdgeStyle;curved=1;html=1;entryX=0;entryY=0.5;entryDx=0;entryDy=0;fontSize=14;fontColor=#FFFFFF;" parent="1" source="20" target="51" edge="1">
                    <mxGeometry relative="1" as="geometry"/>
                </mxCell>
                <mxCell id="88" value="if user&lt;br&gt;is host" style="edgeLabel;html=1;align=center;verticalAlign=middle;resizable=0;points=[];fontSize=14;fontColor=#FFFFFF;" parent="87" vertex="1" connectable="0">
                    <mxGeometry x="-0.4591" y="1" relative="1" as="geometry">
                        <mxPoint as="offset"/>
                    </mxGeometry>
                </mxCell>
                <mxCell id="20" value="idle" style="rounded=1;whiteSpace=wrap;html=1;fillColor=#647687;fontColor=#ffffff;strokeColor=#314354;fontSize=14;" parent="1" vertex="1">
                    <mxGeometry x="590" y="-490" width="120" height="60" as="geometry"/>
                </mxCell>
                <mxCell id="58" style="edgeStyle=orthogonalEdgeStyle;curved=1;html=1;fontSize=14;" parent="1" source="21" target="20" edge="1">
                    <mxGeometry relative="1" as="geometry">
                        <Array as="points">
                            <mxPoint x="410" y="-587"/>
                            <mxPoint x="650" y="-587"/>
                        </Array>
                    </mxGeometry>
                </mxCell>
                <mxCell id="21" value="get user token" style="rounded=1;whiteSpace=wrap;html=1;strokeColor=#009900;fontSize=14;dashed=1;" parent="1" vertex="1">
                    <mxGeometry x="350" y="-710" width="120" height="60" as="geometry"/>
                </mxCell>
                <mxCell id="57" style="edgeStyle=orthogonalEdgeStyle;curved=1;html=1;fontSize=14;" parent="1" source="22" target="20" edge="1">
                    <mxGeometry relative="1" as="geometry"/>
                </mxCell>
                <mxCell id="22" value="save user token" style="rounded=1;whiteSpace=wrap;html=1;strokeColor=#009900;fontSize=14;dashed=1;" parent="1" vertex="1">
                    <mxGeometry x="510" y="-780" width="120" height="60" as="geometry"/>
                </mxCell>
                <mxCell id="31" style="edgeStyle=orthogonalEdgeStyle;curved=1;html=1;fontSize=14;" parent="1" source="23" target="19" edge="1">
                    <mxGeometry relative="1" as="geometry"/>
                </mxCell>
                <mxCell id="36" value="accepted" style="edgeLabel;html=1;align=center;verticalAlign=middle;resizable=0;points=[];fontSize=14;" parent="31" vertex="1" connectable="0">
                    <mxGeometry x="-0.633" y="2" relative="1" as="geometry">
                        <mxPoint x="26" y="12" as="offset"/>
                    </mxGeometry>
                </mxCell>
                <mxCell id="34" style="edgeStyle=orthogonalEdgeStyle;curved=1;html=1;entryX=1;entryY=0.75;entryDx=0;entryDy=0;fontSize=14;" parent="1" source="23" target="20" edge="1">
                    <mxGeometry relative="1" as="geometry">
                        <Array as="points">
                            <mxPoint x="850" y="-445"/>
                        </Array>
                    </mxGeometry>
                </mxCell>
                <mxCell id="35" value="calcelled" style="edgeLabel;html=1;align=center;verticalAlign=middle;resizable=0;points=[];fontSize=14;" parent="34" vertex="1" connectable="0">
                    <mxGeometry x="-0.3034" y="-19" relative="1" as="geometry">
                        <mxPoint as="offset"/>
                    </mxGeometry>
                </mxCell>
                <mxCell id="23" value="user loguin&lt;br style=&quot;font-size: 14px;&quot;&gt;requested" style="rounded=1;whiteSpace=wrap;html=1;strokeColor=#009900;fontSize=14;" parent="1" vertex="1">
                    <mxGeometry x="790" y="-660" width="120" height="60" as="geometry"/>
                </mxCell>
                <mxCell id="33" style="edgeStyle=orthogonalEdgeStyle;curved=1;html=1;fontSize=14;" parent="1" source="32" target="23" edge="1">
                    <mxGeometry relative="1" as="geometry"/>
                </mxCell>
                <mxCell id="32" value="login modal&lt;br style=&quot;font-size: 14px;&quot;&gt;presented&amp;nbsp;&lt;br style=&quot;font-size: 14px;&quot;&gt;here" style="ellipse;shape=cloud;whiteSpace=wrap;html=1;fontSize=14;" parent="1" vertex="1">
                    <mxGeometry x="790" y="-799" width="112" height="109" as="geometry"/>
                </mxCell>
                <mxCell id="55" style="edgeStyle=orthogonalEdgeStyle;curved=1;html=1;entryX=0;entryY=0.5;entryDx=0;entryDy=0;fontSize=14;" parent="1" source="42" target="20" edge="1">
                    <mxGeometry relative="1" as="geometry">
                        <Array as="points">
                            <mxPoint x="240" y="-560"/>
                            <mxPoint x="445" y="-560"/>
                            <mxPoint x="445" y="-460"/>
                        </Array>
                    </mxGeometry>
                </mxCell>
                <mxCell id="42" value="noify user" style="rounded=1;whiteSpace=wrap;html=1;strokeColor=#009900;fontSize=14;dashed=1;" parent="1" vertex="1">
                    <mxGeometry x="180" y="-710" width="120" height="60" as="geometry"/>
                </mxCell>
                <mxCell id="89" style="edgeStyle=orthogonalEdgeStyle;curved=1;html=1;entryX=0.75;entryY=1;entryDx=0;entryDy=0;fontSize=14;fontColor=#FFFFFF;" parent="1" source="51" target="19" edge="1">
                    <mxGeometry relative="1" as="geometry"/>
                </mxCell>
                <mxCell id="90" style="edgeStyle=orthogonalEdgeStyle;curved=1;html=1;fontSize=14;fontColor=#FFFFFF;entryX=0.75;entryY=1;entryDx=0;entryDy=0;" parent="1" source="51" target="51" edge="1">
                    <mxGeometry relative="1" as="geometry">
                        <mxPoint x="827" y="-217" as="targetPoint"/>
                        <Array as="points">
                            <mxPoint x="885" y="-294"/>
                            <mxPoint x="885" y="-241"/>
                            <mxPoint x="791" y="-241"/>
                        </Array>
                    </mxGeometry>
                </mxCell>
                <mxCell id="91" value="if add more" style="edgeLabel;html=1;align=center;verticalAlign=middle;resizable=0;points=[];fontSize=14;fontColor=#FFFFFF;" parent="90" vertex="1" connectable="0">
                    <mxGeometry x="0.0872" y="-7" relative="1" as="geometry">
                        <mxPoint as="offset"/>
                    </mxGeometry>
                </mxCell>
                <mxCell id="92" style="edgeStyle=orthogonalEdgeStyle;curved=1;html=1;entryX=0.75;entryY=1;entryDx=0;entryDy=0;fontSize=14;fontColor=#FFFFFF;" parent="1" source="51" target="20" edge="1">
                    <mxGeometry relative="1" as="geometry"/>
                </mxCell>
                <mxCell id="93" value="on done" style="edgeLabel;html=1;align=center;verticalAlign=middle;resizable=0;points=[];fontSize=14;fontColor=#FFFFFF;" parent="92" vertex="1" connectable="0">
                    <mxGeometry x="-0.1519" y="7" relative="1" as="geometry">
                        <mxPoint as="offset"/>
                    </mxGeometry>
                </mxCell>
                <mxCell id="51" value="assign rooms" style="rounded=1;whiteSpace=wrap;html=1;fontSize=14;strokeColor=#FF0000;dashed=1;" parent="1" vertex="1">
                    <mxGeometry x="701" y="-324.5" width="120" height="60" as="geometry"/>
                </mxCell>
                <mxCell id="86" style="edgeStyle=orthogonalEdgeStyle;curved=1;html=1;entryX=0.25;entryY=1;entryDx=0;entryDy=0;fontSize=14;fontColor=#FFFFFF;" parent="1" source="52" target="20" edge="1">
                    <mxGeometry relative="1" as="geometry"/>
                </mxCell>
                <mxCell id="52" value="create empty rooms" style="rounded=1;whiteSpace=wrap;html=1;fontSize=14;strokeColor=#FF0000;dashed=1;" parent="1" vertex="1">
                    <mxGeometry x="384" y="-169" width="120" height="60" as="geometry"/>
                </mxCell>
                <mxCell id="69" style="edgeStyle=orthogonalEdgeStyle;curved=1;html=1;fontSize=14;fontColor=#FFFFFF;" parent="1" source="53" target="52" edge="1">
                    <mxGeometry relative="1" as="geometry"/>
                </mxCell>
                <mxCell id="70" value="on done" style="edgeLabel;html=1;align=center;verticalAlign=middle;resizable=0;points=[];fontSize=14;fontColor=#FFFFFF;" parent="69" vertex="1" connectable="0">
                    <mxGeometry x="-0.1377" y="-3" relative="1" as="geometry">
                        <mxPoint x="-15" as="offset"/>
                    </mxGeometry>
                </mxCell>
                <mxCell id="53" value="create event" style="rounded=1;whiteSpace=wrap;html=1;fontSize=14;strokeColor=#FF0000;" parent="1" vertex="1">
                    <mxGeometry x="271" y="-328" width="120" height="60" as="geometry"/>
                </mxCell>
                <mxCell id="59" value="&lt;h1 style=&quot;font-size: 14px;&quot;&gt;&lt;font color=&quot;#99ff99&quot; style=&quot;font-size: 14px;&quot;&gt;Phase 1, user/guest auth flow&lt;/font&gt;&lt;/h1&gt;&lt;p style=&quot;font-size: 14px;&quot;&gt;In this phase, the goal is to get a guest token (even if you are a staff member)&lt;/p&gt;&lt;p style=&quot;font-size: 14px;&quot;&gt;now, if the user want to authenticate to have an user token for extra access and functionallity.&lt;/p&gt;&lt;p style=&quot;font-size: 14px;&quot;&gt;the login flow will open a modal, ask the alias and send a link to its email. This link contains&lt;/p&gt;&lt;p style=&quot;font-size: 14px;&quot;&gt;a url with a token, when following the link, the app should read the token, if valid, should create a session on the users browser&lt;/p&gt;" style="text;html=1;strokeColor=none;fillColor=none;spacing=5;spacingTop=-20;whiteSpace=wrap;overflow=hidden;rounded=0;fontSize=14;" parent="1" vertex="1">
                    <mxGeometry x="-699" y="-1069" width="611" height="235" as="geometry"/>
                </mxCell>
                <mxCell id="66" style="edgeStyle=orthogonalEdgeStyle;curved=1;html=1;fontSize=14;fontColor=#FFFFFF;" parent="1" source="65" target="53" edge="1">
                    <mxGeometry relative="1" as="geometry"/>
                </mxCell>
                <mxCell id="65" value="open event&lt;br&gt;creation&lt;br&gt;form" style="ellipse;shape=cloud;whiteSpace=wrap;html=1;strokeColor=#FFFFFF;fontSize=14;fontColor=#FFFFFF;fillColor=none;" parent="1" vertex="1">
                    <mxGeometry x="178" y="-465" width="156" height="91" as="geometry"/>
                </mxCell>
                <mxCell id="68" style="edgeStyle=orthogonalEdgeStyle;curved=1;html=1;fontSize=14;fontColor=#FFFFFF;" parent="1" source="67" target="53" edge="1">
                    <mxGeometry relative="1" as="geometry"/>
                </mxCell>
                <mxCell id="67" value="the user who&lt;br&gt;created the event&lt;br&gt;will now be&lt;br&gt;host" style="ellipse;shape=cloud;whiteSpace=wrap;html=1;strokeColor=#FFFFFF;fontSize=14;fontColor=#FFFFFF;fillColor=none;" parent="1" vertex="1">
                    <mxGeometry x="-49" y="-349" width="217" height="109" as="geometry"/>
                </mxCell>
                <mxCell id="84" style="edgeStyle=orthogonalEdgeStyle;curved=1;html=1;entryX=0;entryY=0.5;entryDx=0;entryDy=0;fontSize=14;fontColor=#FFFFFF;" parent="1" source="71" target="52" edge="1">
                    <mxGeometry relative="1" as="geometry"/>
                </mxCell>
                <mxCell id="71" value="amount of rooms will depend &lt;br&gt;on atendee count &lt;br&gt;and facilitator count" style="ellipse;shape=cloud;whiteSpace=wrap;html=1;strokeColor=#FFFFFF;fontSize=14;fontColor=#FFFFFF;fillColor=none;" parent="1" vertex="1">
                    <mxGeometry x="-19" y="-222" width="255" height="104" as="geometry"/>
                </mxCell>
                <mxCell id="94" style="edgeStyle=orthogonalEdgeStyle;curved=1;html=1;fontSize=14;fontColor=#FFFFFF;" parent="1" source="83" edge="1">
                    <mxGeometry relative="1" as="geometry">
                        <mxPoint x="997.2396267255153" y="-330.8217544555664" as="targetPoint"/>
                    </mxGeometry>
                </mxCell>
                <mxCell id="83" value="send the login email&lt;br&gt;to given alias, this will be &lt;br&gt;the same process that &lt;br&gt;the user requested login" style="ellipse;shape=cloud;whiteSpace=wrap;html=1;strokeColor=#FFFFFF;fontSize=14;fontColor=#FFFFFF;fillColor=none;" parent="1" vertex="1">
                    <mxGeometry x="1020" y="-308" width="282" height="129" as="geometry"/>
                </mxCell>
                <mxCell id="c42cUfcJjYAWY93HMcgf-96" style="edgeStyle=orthogonalEdgeStyle;curved=1;html=1;entryX=0;entryY=0.5;entryDx=0;entryDy=0;" edge="1" parent="1" source="c42cUfcJjYAWY93HMcgf-94" target="17">
                    <mxGeometry relative="1" as="geometry"/>
                </mxCell>
                <mxCell id="c42cUfcJjYAWY93HMcgf-94" value="save guest token" style="rounded=1;whiteSpace=wrap;html=1;strokeColor=#FFFF66;fontSize=14;" vertex="1" parent="1">
                    <mxGeometry x="-235" y="-468" width="120" height="60" as="geometry"/>
                </mxCell>
            </root>
        </mxGraphModel>
    </diagram>
    <diagram id="HedJCKXLisekwMD_0jkN" name="Page-2">
        <mxGraphModel dx="750" dy="1448" grid="0" gridSize="10" guides="1" tooltips="1" connect="1" arrows="1" fold="1" page="1" pageScale="1" pageWidth="850" pageHeight="1100" math="0" shadow="0">
            <root>
                <mxCell id="0"/>
                <mxCell id="1" parent="0"/>
                <mxCell id="4cwhOY1kuKCuPjAlp6LJ-3" style="edgeStyle=none;html=1;entryX=0;entryY=0.5;entryDx=0;entryDy=0;" edge="1" parent="1" source="4cwhOY1kuKCuPjAlp6LJ-1" target="4cwhOY1kuKCuPjAlp6LJ-2">
                    <mxGeometry relative="1" as="geometry"/>
                </mxCell>
                <mxCell id="4cwhOY1kuKCuPjAlp6LJ-13" style="edgeStyle=none;html=1;" edge="1" parent="1" source="4cwhOY1kuKCuPjAlp6LJ-1" target="4cwhOY1kuKCuPjAlp6LJ-12">
                    <mxGeometry relative="1" as="geometry"/>
                </mxCell>
                <mxCell id="4cwhOY1kuKCuPjAlp6LJ-15" style="edgeStyle=none;html=1;" edge="1" parent="1" source="4cwhOY1kuKCuPjAlp6LJ-1" target="4cwhOY1kuKCuPjAlp6LJ-14">
                    <mxGeometry relative="1" as="geometry"/>
                </mxCell>
                <mxCell id="4cwhOY1kuKCuPjAlp6LJ-1" value="comando" style="rounded=0;whiteSpace=wrap;html=1;" vertex="1" parent="1">
                    <mxGeometry x="101" y="-81" width="120" height="60" as="geometry"/>
                </mxCell>
                <mxCell id="4cwhOY1kuKCuPjAlp6LJ-2" value="accion" style="rounded=0;whiteSpace=wrap;html=1;" vertex="1" parent="1">
                    <mxGeometry x="455" y="-81" width="120" height="60" as="geometry"/>
                </mxCell>
                <mxCell id="4cwhOY1kuKCuPjAlp6LJ-5" value="publisher" style="rounded=0;whiteSpace=wrap;html=1;" vertex="1" parent="1">
                    <mxGeometry x="109" y="227" width="120" height="60" as="geometry"/>
                </mxCell>
                <mxCell id="4cwhOY1kuKCuPjAlp6LJ-7" style="edgeStyle=none;html=1;entryX=1;entryY=0.5;entryDx=0;entryDy=0;" edge="1" parent="1" source="4cwhOY1kuKCuPjAlp6LJ-6" target="4cwhOY1kuKCuPjAlp6LJ-5">
                    <mxGeometry relative="1" as="geometry"/>
                </mxCell>
                <mxCell id="4cwhOY1kuKCuPjAlp6LJ-6" value="Subscriber" style="rounded=0;whiteSpace=wrap;html=1;" vertex="1" parent="1">
                    <mxGeometry x="463" y="227" width="120" height="60" as="geometry"/>
                </mxCell>
                <mxCell id="4cwhOY1kuKCuPjAlp6LJ-9" style="edgeStyle=none;html=1;" edge="1" parent="1" source="4cwhOY1kuKCuPjAlp6LJ-8" target="4cwhOY1kuKCuPjAlp6LJ-5">
                    <mxGeometry relative="1" as="geometry"/>
                </mxCell>
                <mxCell id="4cwhOY1kuKCuPjAlp6LJ-8" value="Subscriber" style="rounded=0;whiteSpace=wrap;html=1;" vertex="1" parent="1">
                    <mxGeometry x="463" y="148" width="120" height="60" as="geometry"/>
                </mxCell>
                <mxCell id="4cwhOY1kuKCuPjAlp6LJ-11" style="edgeStyle=none;html=1;" edge="1" parent="1" source="4cwhOY1kuKCuPjAlp6LJ-10" target="4cwhOY1kuKCuPjAlp6LJ-5">
                    <mxGeometry relative="1" as="geometry"/>
                </mxCell>
                <mxCell id="4cwhOY1kuKCuPjAlp6LJ-10" value="Subscriber" style="rounded=0;whiteSpace=wrap;html=1;" vertex="1" parent="1">
                    <mxGeometry x="463" y="315" width="120" height="60" as="geometry"/>
                </mxCell>
                <mxCell id="4cwhOY1kuKCuPjAlp6LJ-12" value="accion" style="rounded=0;whiteSpace=wrap;html=1;" vertex="1" parent="1">
                    <mxGeometry x="432" y="-190" width="120" height="60" as="geometry"/>
                </mxCell>
                <mxCell id="4cwhOY1kuKCuPjAlp6LJ-14" value="accion" style="rounded=0;whiteSpace=wrap;html=1;" vertex="1" parent="1">
                    <mxGeometry x="184" y="-218" width="120" height="60" as="geometry"/>
                </mxCell>
            </root>
        </mxGraphModel>
    </diagram>
    <diagram id="eZ4oSfEjRxr283u4Spvj" name="Page-3">
        <mxGraphModel dx="839" dy="1561" grid="0" gridSize="10" guides="1" tooltips="1" connect="1" arrows="1" fold="1" page="1" pageScale="1" pageWidth="850" pageHeight="1100" math="0" shadow="0">
            <root>
                <mxCell id="0"/>
                <mxCell id="1" parent="0"/>
                <mxCell id="ANnkcaSLfdBhQL78HxMt-1" value="Button 1" style="rounded=0;whiteSpace=wrap;html=1;" vertex="1" parent="1">
                    <mxGeometry x="48" y="179" width="68" height="30" as="geometry"/>
                </mxCell>
                <mxCell id="ANnkcaSLfdBhQL78HxMt-2" value="" style="shape=flexArrow;endArrow=classic;html=1;" edge="1" parent="1">
                    <mxGeometry width="50" height="50" relative="1" as="geometry">
                        <mxPoint x="54" y="76" as="sourcePoint"/>
                        <mxPoint x="104" y="26" as="targetPoint"/>
                    </mxGeometry>
                </mxCell>
                <mxCell id="ANnkcaSLfdBhQL78HxMt-7" style="edgeStyle=none;html=1;" edge="1" parent="1" source="ANnkcaSLfdBhQL78HxMt-6" target="ANnkcaSLfdBhQL78HxMt-1">
                    <mxGeometry relative="1" as="geometry">
                        <mxPoint x="122" y="182" as="targetPoint"/>
                    </mxGeometry>
                </mxCell>
                <mxCell id="ANnkcaSLfdBhQL78HxMt-6" value="event-source 1" style="rounded=0;whiteSpace=wrap;html=1;" vertex="1" parent="1">
                    <mxGeometry x="146" y="97" width="118" height="34" as="geometry"/>
                </mxCell>
                <mxCell id="ANnkcaSLfdBhQL78HxMt-8" value="Button 2" style="rounded=0;whiteSpace=wrap;html=1;" vertex="1" parent="1">
                    <mxGeometry x="458" y="179" width="68" height="30" as="geometry"/>
                </mxCell>
                <mxCell id="ANnkcaSLfdBhQL78HxMt-10" style="edgeStyle=none;html=1;" edge="1" parent="1" source="ANnkcaSLfdBhQL78HxMt-9" target="ANnkcaSLfdBhQL78HxMt-8">
                    <mxGeometry relative="1" as="geometry"/>
                </mxCell>
                <mxCell id="ANnkcaSLfdBhQL78HxMt-20" style="edgeStyle=none;html=1;entryX=0;entryY=0.5;entryDx=0;entryDy=0;" edge="1" parent="1" source="ANnkcaSLfdBhQL78HxMt-9" target="ANnkcaSLfdBhQL78HxMt-18">
                    <mxGeometry relative="1" as="geometry"/>
                </mxCell>
                <mxCell id="ANnkcaSLfdBhQL78HxMt-9" value="event-source 2" style="rounded=0;whiteSpace=wrap;html=1;" vertex="1" parent="1">
                    <mxGeometry x="340" y="97" width="118" height="34" as="geometry"/>
                </mxCell>
                <mxCell id="ANnkcaSLfdBhQL78HxMt-14" style="edgeStyle=none;html=1;" edge="1" parent="1" source="ANnkcaSLfdBhQL78HxMt-13" target="ANnkcaSLfdBhQL78HxMt-6">
                    <mxGeometry relative="1" as="geometry"/>
                </mxCell>
                <mxCell id="ANnkcaSLfdBhQL78HxMt-15" style="edgeStyle=none;html=1;entryX=0.5;entryY=0;entryDx=0;entryDy=0;" edge="1" parent="1" source="ANnkcaSLfdBhQL78HxMt-13" target="ANnkcaSLfdBhQL78HxMt-9">
                    <mxGeometry relative="1" as="geometry"/>
                </mxCell>
                <mxCell id="ANnkcaSLfdBhQL78HxMt-13" value="event-group 1" style="rounded=0;whiteSpace=wrap;html=1;" vertex="1" parent="1">
                    <mxGeometry x="236" y="-19" width="118" height="34" as="geometry"/>
                </mxCell>
                <mxCell id="ANnkcaSLfdBhQL78HxMt-17" style="edgeStyle=none;html=1;entryX=1;entryY=0.25;entryDx=0;entryDy=0;" edge="1" parent="1" source="ANnkcaSLfdBhQL78HxMt-16" target="ANnkcaSLfdBhQL78HxMt-13">
                    <mxGeometry relative="1" as="geometry"/>
                </mxCell>
                <mxCell id="ANnkcaSLfdBhQL78HxMt-16" value="log de todo" style="rounded=0;whiteSpace=wrap;html=1;" vertex="1" parent="1">
                    <mxGeometry x="501" y="-147" width="120" height="166" as="geometry"/>
                </mxCell>
                <mxCell id="ANnkcaSLfdBhQL78HxMt-24" value="Si" style="edgeStyle=none;html=1;entryX=0.625;entryY=1;entryDx=0;entryDy=0;" edge="1" parent="1" source="ANnkcaSLfdBhQL78HxMt-18" target="ANnkcaSLfdBhQL78HxMt-21">
                    <mxGeometry relative="1" as="geometry"/>
                </mxCell>
                <mxCell id="ANnkcaSLfdBhQL78HxMt-18" value="Filter" style="rhombus;whiteSpace=wrap;html=1;" vertex="1" parent="1">
                    <mxGeometry x="524" y="145" width="80" height="28" as="geometry"/>
                </mxCell>
                <mxCell id="ANnkcaSLfdBhQL78HxMt-25" style="edgeStyle=none;html=1;" edge="1" parent="1" source="ANnkcaSLfdBhQL78HxMt-21" target="ANnkcaSLfdBhQL78HxMt-9">
                    <mxGeometry relative="1" as="geometry"/>
                </mxCell>
                <mxCell id="ANnkcaSLfdBhQL78HxMt-26" value="new &lt;br&gt;value" style="edgeLabel;html=1;align=center;verticalAlign=middle;resizable=0;points=[];" vertex="1" connectable="0" parent="ANnkcaSLfdBhQL78HxMt-25">
                    <mxGeometry x="-0.335" y="-1" relative="1" as="geometry">
                        <mxPoint as="offset"/>
                    </mxGeometry>
                </mxCell>
                <mxCell id="ANnkcaSLfdBhQL78HxMt-21" value="transform" style="shape=hexagon;perimeter=hexagonPerimeter2;whiteSpace=wrap;html=1;fixedSize=1;" vertex="1" parent="1">
                    <mxGeometry x="543" y="64" width="120" height="25" as="geometry"/>
                </mxCell>
            </root>
        </mxGraphModel>
    </diagram>
</mxfile>